<svg width="188" height="56" viewBox="0 0 188 56" fill="none" xmlns="http://www.w3.org/2000/svg">
<path fill-rule="evenodd" clip-rule="evenodd" d="M4 56C1.79086 56 0 54.2091 0 52V4C0 1.79086 1.79086 0 4 0H184C186.209 0 188 1.79086 188 4V52C188 54.2091 186.209 56 184 56H4Z" fill="#000C22"/>
<path fill-rule="evenodd" clip-rule="evenodd" d="M32.7519 16C31.4722 16.0884 29.9765 16.907 29.1049 17.9728C28.3098 18.9397 27.6557 20.3759 27.9107 21.7715C29.3089 21.815 30.7536 20.977 31.5908 19.8932C32.3738 18.8843 32.9664 17.4571 32.7519 16H32.7519Z" fill="white"/>
<path fill-rule="evenodd" clip-rule="evenodd" d="M37.8051 24.0497C36.5766 22.509 34.8502 21.6149 33.2197 21.6149C31.0672 21.6149 30.1567 22.6455 28.6613 22.6455C27.1193 22.6455 25.9478 21.6179 24.0864 21.6179C22.2579 21.6179 20.3109 22.7355 19.0764 24.6468C17.341 27.3381 17.638 32.3983 20.4504 36.7084C21.4569 38.2506 22.8009 39.9848 24.5588 39.9998C26.1233 40.0148 26.5643 38.9962 28.6838 38.9857C30.8032 38.9737 31.2052 40.0133 32.7667 39.9968C34.5262 39.9833 35.9436 38.0615 36.9501 36.5194C37.6716 35.4137 37.9401 34.8571 38.4996 33.609C34.4302 32.0593 33.7777 26.2715 37.8051 24.0497Z" fill="white"/>
<path d="M53.544 43L54.7457 39.5355H59.8594L61.0547 43H63.1513L58.4403 29.9091H56.1584L51.4474 43H53.544ZM55.321 37.8736L57.2514 32.2869H57.3537L59.2841 37.8736H55.321ZM64.8883 46.6818H66.7995V41.4723H66.9146C67.2598 42.0987 67.9629 43.1918 69.7527 43.1918C72.1305 43.1918 73.8564 41.2869 73.8564 38.1101C73.8564 34.9268 72.1049 33.054 69.7335 33.054C67.9118 33.054 67.2534 34.1662 66.9146 34.7734H66.7548V33.1818H64.8883V46.6818ZM66.7612 38.0909C66.7612 36.0391 67.6561 34.6776 69.3244 34.6776C71.0566 34.6776 71.926 36.1413 71.926 38.0909C71.926 40.0597 71.0311 41.5618 69.3244 41.5618C67.6816 41.5618 66.7612 40.1555 66.7612 38.0909ZM75.9977 46.6818H77.9089V41.4723H78.024C78.3691 42.0987 79.0723 43.1918 80.862 43.1918C83.2399 43.1918 84.9657 41.2869 84.9657 38.1101C84.9657 34.9268 83.2143 33.054 80.8429 33.054C79.0211 33.054 78.3627 34.1662 78.024 34.7734H77.8642V33.1818H75.9977V46.6818ZM77.8706 38.0909C77.8706 36.0391 78.7654 34.6776 80.4338 34.6776C82.166 34.6776 83.0353 36.1413 83.0353 38.0909C83.0353 40.0597 82.1404 41.5618 80.4338 41.5618C78.791 41.5618 77.8706 40.1555 77.8706 38.0909ZM89.0183 29.9091H87.1071V43H89.0183V29.9091ZM95.821 43.1982C97.9624 43.1982 99.4773 42.1435 99.9119 40.5455L98.103 40.2195C97.7578 41.1463 96.9268 41.6193 95.8402 41.6193C94.2038 41.6193 93.1044 40.5582 93.0533 38.6662H100.033V37.9886C100.033 34.4411 97.9112 33.054 95.6868 33.054C92.951 33.054 91.1484 35.1378 91.1484 38.1548C91.1484 41.2038 92.9254 43.1982 95.821 43.1982ZM93.0597 37.2344C93.1364 35.8409 94.1463 34.6328 95.6996 34.6328C97.1825 34.6328 98.1541 35.7322 98.1605 37.2344H93.0597ZM114.275 35.5788C113.879 34.0511 112.683 33.054 110.561 33.054C108.343 33.054 106.771 34.2237 106.771 35.9624C106.771 37.3558 107.614 38.2827 109.455 38.6918L111.117 39.0561C112.063 39.267 112.504 39.6889 112.504 40.3026C112.504 41.0632 111.692 41.6577 110.44 41.6577C109.295 41.6577 108.56 41.1655 108.33 40.2003L106.483 40.4815C106.803 42.2202 108.247 43.1982 110.452 43.1982C112.824 43.1982 114.467 41.9389 114.467 40.1619C114.467 38.7749 113.585 37.9183 111.782 37.5028L110.222 37.1449C109.142 36.8892 108.675 36.5249 108.682 35.8601C108.675 35.1058 109.494 34.5689 110.58 34.5689C111.769 34.5689 112.319 35.2273 112.543 35.8857L114.275 35.5788ZM121.151 33.1818H119.138V30.8295H117.226V33.1818H115.788V34.7159H117.226V40.5135C117.22 42.2969 118.581 43.1598 120.09 43.1278C120.697 43.1214 121.106 43.0064 121.33 42.9233L120.985 41.3445C120.857 41.37 120.621 41.4276 120.314 41.4276C119.694 41.4276 119.138 41.223 119.138 40.1172V34.7159H121.151V33.1818ZM127.295 43.1982C130.063 43.1982 131.872 41.1719 131.872 38.1357C131.872 35.0803 130.063 33.054 127.295 33.054C124.528 33.054 122.719 35.0803 122.719 38.1357C122.719 41.1719 124.528 43.1982 127.295 43.1982ZM127.302 41.5938C125.493 41.5938 124.649 40.0149 124.649 38.1293C124.649 36.25 125.493 34.652 127.302 34.652C129.098 34.652 129.942 36.25 129.942 38.1293C129.942 40.0149 129.098 41.5938 127.302 41.5938ZM134.006 43H135.917V37.0043C135.917 35.7195 136.907 34.7926 138.263 34.7926C138.659 34.7926 139.106 34.8629 139.26 34.9077V33.0795C139.068 33.054 138.691 33.0348 138.448 33.0348C137.297 33.0348 136.313 33.6868 135.955 34.7415H135.853V33.1818H134.006V43ZM144.794 43.1982C146.935 43.1982 148.45 42.1435 148.885 40.5455L147.076 40.2195C146.73 41.1463 145.9 41.6193 144.813 41.6193C143.176 41.6193 142.077 40.5582 142.026 38.6662H149.006V37.9886C149.006 34.4411 146.884 33.054 144.659 33.054C141.924 33.054 140.121 35.1378 140.121 38.1548C140.121 41.2038 141.898 43.1982 144.794 43.1982ZM142.032 37.2344C142.109 35.8409 143.119 34.6328 144.672 34.6328C146.155 34.6328 147.127 35.7322 147.133 37.2344H142.032Z" fill="white"/>
<path opacity="0.5" d="M54.7841 24C57.4432 24 58.9815 22.3509 58.9815 19.6236C58.9815 16.9091 57.4432 15.2727 54.8736 15.2727H51.9588V24H54.7841ZM53.2756 22.8494V16.4233H54.7926C56.7017 16.4233 57.6861 17.5653 57.6861 19.6236C57.6861 21.6903 56.7017 22.8494 54.7116 22.8494H53.2756ZM68.1999 19.6364C68.1999 16.8452 66.5295 15.1534 64.271 15.1534C62.0039 15.1534 60.3377 16.8452 60.3377 19.6364C60.3377 22.4233 62.0039 24.1193 64.271 24.1193C66.5295 24.1193 68.1999 22.4276 68.1999 19.6364ZM66.896 19.6364C66.896 21.7628 65.771 22.9176 64.271 22.9176C62.7667 22.9176 61.646 21.7628 61.646 19.6364C61.646 17.5099 62.7667 16.3551 64.271 16.3551C65.771 16.3551 66.896 17.5099 66.896 19.6364ZM71.445 24H72.7745L74.6112 17.4631H74.6793L76.516 24H77.8413L80.266 15.2727H78.8768L77.1808 22.0355H77.0998L75.3313 15.2727H73.9592L72.1907 22.0312H72.1097L70.4094 15.2727H69.0245L71.445 24ZM88.5107 15.2727H87.2067V21.6818H87.1257L82.6854 15.2727H81.4666V24H82.7834V17.5994H82.8643L87.3004 24H88.5107V15.2727ZM90.4315 24H95.7028V22.8665H91.7482V15.2727H90.4315V24ZM104.446 19.6364C104.446 16.8452 102.776 15.1534 100.517 15.1534C98.25 15.1534 96.5838 16.8452 96.5838 19.6364C96.5838 22.4233 98.25 24.1193 100.517 24.1193C102.776 24.1193 104.446 22.4276 104.446 19.6364ZM103.142 19.6364C103.142 21.7628 102.017 22.9176 100.517 22.9176C99.0128 22.9176 97.892 21.7628 97.892 19.6364C97.892 17.5099 99.0128 16.3551 100.517 16.3551C102.017 16.3551 103.142 17.5099 103.142 19.6364ZM106.391 24L107.192 21.6903H110.602L111.398 24H112.796L109.656 15.2727H108.134L104.994 24H106.391ZM107.576 20.5824L108.863 16.858H108.931L110.218 20.5824H107.576ZM116.882 24C119.541 24 121.079 22.3509 121.079 19.6236C121.079 16.9091 119.541 15.2727 116.971 15.2727H114.056V24H116.882ZM115.373 22.8494V16.4233H116.89C118.799 16.4233 119.784 17.5653 119.784 19.6236C119.784 21.6903 118.799 22.8494 116.809 22.8494H115.373ZM133.473 19.6364C133.473 16.8452 131.803 15.1534 129.544 15.1534C127.277 15.1534 125.611 16.8452 125.611 19.6364C125.611 22.4233 127.277 24.1193 129.544 24.1193C131.803 24.1193 133.473 22.4276 133.473 19.6364ZM132.169 19.6364C132.169 21.7628 131.044 22.9176 129.544 22.9176C128.04 22.9176 126.919 21.7628 126.919 19.6364C126.919 17.5099 128.04 16.3551 129.544 16.3551C131.044 16.3551 132.169 17.5099 132.169 19.6364ZM142.159 15.2727H140.855V21.6818H140.774L136.334 15.2727H135.115V24H136.432V17.5994H136.513L140.949 24H142.159V15.2727ZM146.825 16.4062H149.544V24H150.857V16.4062H153.58V15.2727H146.825V16.4062ZM155.072 24H156.389V20.1946H160.74V24H162.061V15.2727H160.74V19.0653H156.389V15.2727H155.072V24ZM163.978 24H169.501V22.8665H165.295V20.1946H169.164V19.0653H165.295V16.4062H169.45V15.2727H163.978V24Z" fill="white"/>
</svg>
