<svg width="53" height="50" viewBox="0 0 53 50" fill="none" xmlns="http://www.w3.org/2000/svg">
<path fill-rule="evenodd" clip-rule="evenodd" d="M25.3118 15.502C25.3118 8.04612 31.356 2.00196 38.8118 2.00196C46.2677 2.00196 52.3118 8.04612 52.3118 15.502C52.3118 22.9578 46.2677 29.002 38.8118 29.002C31.356 29.002 25.3118 22.9578 25.3118 15.502Z" fill="#EEE9DC"/>
<path fill-rule="evenodd" clip-rule="evenodd" d="M45.7196 37.8489L24.4825 48.1011V23.1117L29.5482 20.6661C29.9124 20.4903 30.0652 20.0525 29.8893 19.6881C29.7134 19.3239 29.2756 19.171 28.9113 19.347L23.75 21.8387L21.7192 20.8582C21.3548 20.6822 20.917 20.8351 20.7412 21.1993C20.5653 21.5636 20.718 22.0015 21.0823 22.1774L23.0176 23.1117V48.1011L1.78052 37.8488V12.8593L17.9524 20.6664C18.055 20.7161 18.1635 20.7395 18.2703 20.7395C18.5425 20.7395 18.804 20.587 18.9303 20.3253C19.1062 19.9611 18.9535 19.5232 18.5892 19.3473L2.73277 11.6924L10.0086 8.17992L32.01 18.8013C32.0132 18.8058 32.0168 18.8098 32.0202 18.8142V27.6031C32.0202 27.8552 32.1497 28.0895 32.3632 28.2236C32.4818 28.298 32.617 28.3356 32.7527 28.3356C32.8613 28.3356 32.9701 28.3115 33.071 28.2627L38.5508 25.6173C38.8039 25.4951 38.9648 25.2389 38.9648 24.9577V16.1203L45.7196 12.8594V37.8489V37.8489ZM37.4999 16.8274V24.4979L33.485 26.4362V18.7657L37.4999 16.8274ZM16.0222 5.30649L37.0089 15.4379L32.7106 17.513L11.7326 7.38569L16.0222 5.30649ZM23.7501 1.54624L44.7673 11.6924L38.6748 14.6336C38.6363 14.6042 38.5955 14.5771 38.5508 14.5555L17.6763 4.47837L23.7501 1.54624ZM46.7704 11.0329L24.0685 0.0732908C23.8672 -0.0237792 23.6329 -0.0237792 23.4317 0.0732908L0.729674 11.0329C0.476554 11.155 0.315704 11.4114 0.315704 11.6924V38.3085C0.315704 38.5896 0.476544 38.8459 0.729674 38.9681L23.4316 49.9276C23.5322 49.9762 23.6412 50.0005 23.7501 50.0005C23.8589 50.0005 23.9678 49.9762 24.0685 49.9276L46.7704 38.9681C47.0236 38.8459 47.1844 38.5896 47.1844 38.3085V11.6925C47.1844 11.4113 47.0235 11.1551 46.7704 11.0328V11.0329Z" fill="#491E4B"/>
<path fill-rule="evenodd" clip-rule="evenodd" d="M7.82414 35.007L4.49489 33.3968C4.1307 33.2205 3.6933 33.3737 3.51754 33.7384C3.34178 34.1031 3.49442 34.5414 3.85841 34.7176L7.18766 36.3277C7.29023 36.3774 7.39865 36.4009 7.50531 36.4009C7.77739 36.4009 8.03873 36.2481 8.16491 35.9862C8.34077 35.6214 8.18814 35.1832 7.82414 35.0071V35.007Z" fill="#491E4B"/>
<path fill-rule="evenodd" clip-rule="evenodd" d="M10.8862 33.0166L4.4946 29.9292C4.13033 29.7533 3.69263 29.906 3.5168 30.2705C3.34106 30.6349 3.49376 31.073 3.85793 31.2489L10.2495 34.3364C10.3521 34.3859 10.4606 34.4094 10.5673 34.4094C10.8395 34.4094 11.101 34.2568 11.2272 33.9951C11.4031 33.6305 11.2504 33.1925 10.8862 33.0166L10.8862 33.0166Z" fill="#491E4B"/>
</svg>
