<svg width="188" height="56" viewBox="0 0 188 56" fill="none" xmlns="http://www.w3.org/2000/svg">
<path fill-rule="evenodd" clip-rule="evenodd" d="M4 56C1.79086 56 0 54.2091 0 52V4C0 1.79086 1.79086 0 4 0H184C186.209 0 188 1.79086 188 4V52C188 54.2091 186.209 56 184 56H4Z" fill="#491E4B"/>
<path d="M61.2976 34.0447H63.3239C62.8828 31.4943 60.7031 29.7301 57.8778 29.7301C54.4901 29.7301 52.0163 32.2805 52.0163 36.4609C52.0163 40.603 54.4197 43.179 57.9673 43.179C61.1442 43.179 63.4134 41.0952 63.4134 37.7905V36.3011H58.2678V37.9311H61.5021C61.4574 40.0405 60.0639 41.3764 57.9673 41.3764C55.6598 41.3764 53.9787 39.6314 53.9787 36.4482C53.9787 33.2777 55.6726 31.5327 57.8906 31.5327C59.6293 31.5327 60.8054 32.4915 61.2976 34.0447ZM69.9029 43.1982C72.6706 43.1982 74.4796 41.1719 74.4796 38.1357C74.4796 35.0803 72.6706 33.054 69.9029 33.054C67.1351 33.054 65.3262 35.0803 65.3262 38.1357C65.3262 41.1719 67.1351 43.1982 69.9029 43.1982ZM69.9093 41.5938C68.1003 41.5938 67.2566 40.0149 67.2566 38.1293C67.2566 36.25 68.1003 34.652 69.9093 34.652C71.7054 34.652 72.5492 36.25 72.5492 38.1293C72.5492 40.0149 71.7054 41.5938 69.9093 41.5938ZM80.7486 43.1982C83.5163 43.1982 85.3253 41.1719 85.3253 38.1357C85.3253 35.0803 83.5163 33.054 80.7486 33.054C77.9808 33.054 76.1719 35.0803 76.1719 38.1357C76.1719 41.1719 77.9808 43.1982 80.7486 43.1982ZM80.755 41.5938C78.946 41.5938 78.1023 40.0149 78.1023 38.1293C78.1023 36.25 78.946 34.652 80.755 34.652C82.5511 34.652 83.3949 36.25 83.3949 38.1293C83.3949 40.0149 82.5511 41.5938 80.755 41.5938ZM91.5751 46.8864C94.0744 46.8864 96.0048 45.7422 96.0048 43.2173V33.1818H94.1319V34.7734H93.9913C93.6525 34.1662 92.975 33.054 91.1468 33.054C88.7754 33.054 87.0304 34.9268 87.0304 38.0526C87.0304 41.1847 88.8137 42.853 91.1341 42.853C92.9366 42.853 93.6333 41.8366 93.9785 41.2102H94.1V43.1406C94.1 44.6811 93.0453 45.3459 91.5943 45.3459C90.0027 45.3459 89.3826 44.5469 89.0439 43.9844L87.4011 44.6619C87.9189 45.8636 89.2292 46.8864 91.5751 46.8864ZM91.5559 41.2678C89.8493 41.2678 88.9608 39.9574 88.9608 38.027C88.9608 36.1413 89.8301 34.6776 91.5559 34.6776C93.2243 34.6776 94.1191 36.0391 94.1191 38.027C94.1191 40.0533 93.2051 41.2678 91.5559 41.2678ZM100.479 29.9091H98.568V43H100.479V29.9091ZM107.282 43.1982C109.423 43.1982 110.938 42.1435 111.373 40.5455L109.564 40.2195C109.219 41.1463 108.388 41.6193 107.301 41.6193C105.665 41.6193 104.565 40.5582 104.514 38.6662H111.494V37.9886C111.494 34.4411 109.372 33.054 107.148 33.054C104.412 33.054 102.609 35.1378 102.609 38.1548C102.609 41.2038 104.386 43.1982 107.282 43.1982ZM104.521 37.2344C104.597 35.8409 105.607 34.6328 107.161 34.6328C108.643 34.6328 109.615 35.7322 109.621 37.2344H104.521ZM118.532 43H120.507V38.3977H123.192C126.228 38.3977 127.73 36.5632 127.73 34.147C127.73 31.7372 126.241 29.9091 123.198 29.9091H118.532V43ZM120.507 36.723V31.603H122.987C124.943 31.603 125.742 32.6641 125.742 34.147C125.742 35.63 124.943 36.723 123.013 36.723H120.507ZM131.803 29.9091H129.892V43H131.803V29.9091ZM137.232 43.2173C138.855 43.2173 139.77 42.3928 140.134 41.6577H140.211V43H142.077V36.4801C142.077 33.6229 139.827 33.054 138.267 33.054C136.49 33.054 134.854 33.7699 134.215 35.5597L136.011 35.9688C136.292 35.272 137.008 34.6009 138.293 34.6009C139.527 34.6009 140.159 35.2464 140.159 36.3587V36.4034C140.159 37.1001 139.444 37.0874 137.679 37.2919C135.819 37.5092 133.914 37.995 133.914 40.2259C133.914 42.1562 135.365 43.2173 137.232 43.2173ZM137.647 41.6832C136.567 41.6832 135.787 41.1974 135.787 40.2514C135.787 39.2287 136.695 38.8643 137.801 38.7173C138.421 38.6342 139.891 38.468 140.166 38.1932V39.4588C140.166 40.6222 139.239 41.6832 137.647 41.6832ZM145.479 46.6818C147.058 46.6818 148.055 45.8572 148.624 44.3104L152.683 33.201L150.618 33.1818L148.132 40.8011H148.03L145.543 33.1818H143.498L147.09 43.1278L146.854 43.7798C146.368 45.0838 145.684 45.1925 144.635 44.9048L144.175 46.4709C144.405 46.5732 144.904 46.6818 145.479 46.6818Z" fill="white"/>
<path opacity="0.5" d="M57.8651 18.0298H59.2159C58.9219 16.3295 57.4688 15.1534 55.5852 15.1534C53.3267 15.1534 51.6776 16.8537 51.6776 19.6406C51.6776 22.402 53.2798 24.1193 55.6449 24.1193C57.7628 24.1193 59.2756 22.7301 59.2756 20.527V19.5341H55.8452V20.6207H58.0014C57.9716 22.027 57.0426 22.9176 55.6449 22.9176C54.1065 22.9176 52.9858 21.7543 52.9858 19.6321C52.9858 17.5185 54.1151 16.3551 55.5938 16.3551C56.7528 16.3551 57.5369 16.9943 57.8651 18.0298ZM60.9471 24H66.4698V22.8665H62.2638V20.1946H66.1332V19.0653H62.2638V16.4062H66.4187V15.2727H60.9471V24ZM67.7472 16.4062H70.4659V24H71.7784V16.4062H74.5014V15.2727H67.7472V16.4062ZM80.4865 15.2727H79.1697V24H80.4865V15.2727ZM89.4482 15.2727H88.1442V21.6818H88.0632L83.6229 15.2727H82.4041V24H83.7209V17.5994H83.8018L88.2379 24H89.4482V15.2727ZM102.126 19.6364C102.126 16.8452 100.455 15.1534 98.1967 15.1534C95.9297 15.1534 94.2635 16.8452 94.2635 19.6364C94.2635 22.4233 95.9297 24.1193 98.1967 24.1193C100.455 24.1193 102.126 22.4276 102.126 19.6364ZM100.822 19.6364C100.822 21.7628 99.6967 22.9176 98.1967 22.9176C96.6925 22.9176 95.5717 21.7628 95.5717 19.6364C95.5717 17.5099 96.6925 16.3551 98.1967 16.3551C99.6967 16.3551 100.822 17.5099 100.822 19.6364ZM110.811 15.2727H109.507V21.6818H109.426L104.986 15.2727H103.767V24H105.084V17.5994H105.165L109.601 24H110.811V15.2727Z" fill="white"/>
<path fill-rule="evenodd" clip-rule="evenodd" d="M22.1111 17.3516C21.2504 16.8756 20.2398 16.8866 19.3846 17.3584L29.408 26.6096L32.7753 23.2407L22.1111 17.3516Z" fill="white"/>
<path fill-rule="evenodd" clip-rule="evenodd" d="M18.385 18.3089C18.1403 18.7088 18.0001 19.1665 18.0001 19.6517V36.3458C18.0001 36.8159 18.1279 37.2639 18.3589 37.6557L28.4369 27.5796L18.385 18.3089Z" fill="white"/>
<path fill-rule="evenodd" clip-rule="evenodd" d="M37.2455 25.7001L34.0326 23.9284L30.4223 27.5349L34.8469 31.6128L37.2469 30.2893C38.1106 29.811 38.6278 28.9533 38.6278 27.994C38.6265 27.0346 38.1107 26.177 37.2456 25.7001H37.2455Z" fill="white"/>
<path fill-rule="evenodd" clip-rule="evenodd" d="M29.4472 28.511L19.3441 38.6174C19.7825 38.8676 20.2635 38.9996 20.7473 38.9996C21.2146 38.9996 21.6846 38.8813 22.1148 38.6435L33.5732 32.3179L29.4472 28.511Z" fill="white"/>
</svg>
