<svg width="81" height="74" viewBox="0 0 81 74" fill="none" xmlns="http://www.w3.org/2000/svg">
<path d="M77.2871 0.0273438L80.3633 3.47266C67.8125 12.6602 61.5371 22.5859 61.5371 33.25C61.5371 42.3555 66.5 50.1484 76.4258 56.6289L59.0762 73.8555C49.0684 66.3906 44.0645 57.5312 44.0645 47.2773C44.0645 32.7578 55.1387 17.0078 77.2871 0.0273438ZM33.4824 0.0273438L36.5586 3.47266C24.0078 12.6602 17.7324 22.5859 17.7324 33.25C17.7324 42.3555 22.6543 50.1484 32.498 56.6289L15.2715 73.8555C5.26367 66.3906 0.259766 57.5312 0.259766 47.2773C0.259766 32.7578 11.334 17.0078 33.4824 0.0273438Z" fill="#491E4B"/>
</svg>
