<svg width="60" height="38" viewBox="0 0 60 38" fill="none" xmlns="http://www.w3.org/2000/svg">
<path fill-rule="evenodd" clip-rule="evenodd" d="M4.12218 19.501C4.12218 12.0451 10.1663 6.00098 17.6222 6.00098C25.078 6.00098 31.1222 12.0451 31.1222 19.501C31.1222 26.9568 25.078 33.001 17.6222 33.001C10.1663 33.001 4.12218 26.9568 4.12218 19.501Z" fill="#EEE9DC"/>
<path fill-rule="evenodd" clip-rule="evenodd" d="M57.259 23.9983H56.21C55.6316 23.9983 55.161 23.5277 55.161 22.9493V21.9003H57.2589V23.9983H57.259ZM49.2994 35.8451C47.0879 35.8451 45.2888 34.046 45.2888 31.8345C45.2888 29.6229 47.0879 27.8238 49.2994 27.8238C51.5108 27.8238 53.31 29.6229 53.31 31.8345C53.31 34.046 51.5108 35.8451 49.2994 35.8451ZM16.7207 35.8451C14.5093 35.8451 12.7101 34.046 12.7101 31.8345C12.7101 29.6229 14.5093 27.8238 16.7207 27.8238C18.9322 27.8238 20.7314 29.6229 20.7314 31.8345C20.7314 34.046 18.9322 35.8451 16.7207 35.8451ZM43.3143 16.1005V10.0536H51.5384L53.0501 16.1005H43.3143ZM43.3143 6.10478H50.2866C51.4093 6.10478 52.3228 7.01822 52.3228 8.14097V8.20262H43.3143L43.3143 6.10478ZM54.972 16.1561L53.4413 10.0332C53.8598 9.94431 54.1738 9.57303 54.1738 9.1282V8.14099C54.1738 5.99754 52.4299 4.25378 50.2866 4.25378H43.3143V2.21747C43.3143 1.16272 42.4563 0.304688 41.4016 0.304688H5.86115C4.8064 0.304688 3.94837 1.16272 3.94837 2.21747V19.0004C3.94837 19.5115 4.36272 19.926 4.87393 19.926C5.38503 19.926 5.79949 19.5117 5.79949 19.0004V2.21747C5.79949 2.18341 5.82708 2.15582 5.86114 2.15582H41.4014C41.4355 2.15582 41.4631 2.18342 41.4631 2.21747V19.0007C41.4631 19.5118 41.8774 19.9262 42.3886 19.9262C42.8997 19.9262 43.3142 19.5119 43.3142 19.0007V17.9515H54.2322C54.2331 17.9515 54.2338 17.9517 54.2346 17.9517C54.2355 17.9517 54.2364 17.9516 54.2372 17.9516C55.5807 17.9525 56.7214 18.8343 57.1133 20.0494H54.2353C53.7242 20.0494 53.3097 20.4638 53.3097 20.975V22.9494C53.3097 24.5485 54.6107 25.8494 56.2098 25.8494H57.2587V29.9217H54.8387C54.0437 27.6262 51.8616 25.9727 49.2991 25.9727C46.7367 25.9727 44.5545 27.6262 43.7596 29.9217H43.314V22.9493C43.314 22.4382 42.8996 22.0237 42.3884 22.0237C41.8773 22.0237 41.4629 22.4381 41.4629 22.9493V29.9215H22.2603C21.4653 27.626 19.2832 25.9725 16.7207 25.9725C14.1583 25.9725 11.9761 27.626 11.1812 29.9215H5.86114C5.82708 29.9215 5.79949 29.8939 5.79949 29.8598V27.8236H9.81011C10.3212 27.8236 10.7357 27.4093 10.7357 26.8981C10.7357 26.3868 10.3213 25.9725 9.81011 25.9725H0.925072C0.413972 25.9725 -0.000488281 26.3868 -0.000488281 26.8981C-0.000488281 27.4093 0.413862 27.8236 0.925072 27.8236H3.94848V29.8598C3.94848 30.9146 4.80651 31.7726 5.86126 31.7726H10.8607C10.8605 31.7931 10.8591 31.8136 10.8591 31.8342C10.8591 35.0664 13.4887 37.6959 16.7207 37.6959C19.9528 37.6959 22.5824 35.0664 22.5824 31.8342C22.5824 31.8135 22.581 31.7931 22.5807 31.7726H43.4391C43.4389 31.7931 43.4375 31.8136 43.4375 31.8342C43.4375 35.0664 46.0671 37.6959 49.2991 37.6959C52.5312 37.6959 55.1608 35.0664 55.1608 31.8342C55.1608 31.8135 55.1594 31.7931 55.1592 31.7726H58.1843C58.6954 31.7726 59.1099 31.3582 59.1099 30.847V20.9748C59.11 18.5374 57.3116 16.5123 54.972 16.1561L54.972 16.1561Z" fill="#491E4B"/>
<path fill-rule="evenodd" clip-rule="evenodd" d="M16.7215 29.9234C15.6652 29.9234 14.8059 30.7804 14.8059 31.8339C14.8059 32.8874 15.6652 33.7445 16.7215 33.7445C17.7778 33.7445 18.6371 32.8874 18.6371 31.8339C18.6371 30.7804 17.7778 29.9234 16.7215 29.9234Z" fill="#491E4B"/>
<path fill-rule="evenodd" clip-rule="evenodd" d="M49.2987 29.9234C48.2425 29.9234 47.3832 30.7804 47.3832 31.8339C47.3832 32.8874 48.2425 33.7445 49.2987 33.7445C50.355 33.7445 51.2143 32.8874 51.2143 31.8339C51.2143 30.7804 50.355 29.9234 49.2987 29.9234Z" fill="#491E4B"/>
<path fill-rule="evenodd" clip-rule="evenodd" d="M38.4356 25.9757H24.6211C24.1102 25.9757 23.696 26.3903 23.696 26.9018C23.696 27.4133 24.1101 27.8279 24.6211 27.8279H38.4356C38.9464 27.8279 39.3607 27.4133 39.3607 26.9018C39.3607 26.3903 38.9465 25.9757 38.4356 25.9757Z" fill="#491E4B"/>
<path fill-rule="evenodd" clip-rule="evenodd" d="M14.7483 22.0277H2.9033C2.39227 22.0277 1.97788 22.4423 1.97788 22.9538C1.97788 23.4654 2.39216 23.88 2.9033 23.88H14.7483C15.2593 23.88 15.6737 23.4654 15.6737 22.9538C15.6737 22.4423 15.2593 22.0277 14.7483 22.0277Z" fill="#491E4B"/>
<path fill-rule="evenodd" clip-rule="evenodd" d="M32.1883 9.46045C31.8269 9.09922 31.2407 9.09922 30.8792 9.46057L22.6474 17.6881L18.3651 13.408C18.0036 13.0467 17.4175 13.0467 17.0561 13.408C16.6945 13.7693 16.6945 14.355 17.0561 14.7164L21.993 19.6508C22.1737 19.8315 22.4106 19.9217 22.6474 19.9217C22.8842 19.9217 23.1213 19.8315 23.3019 19.6508L32.1882 10.769C32.5497 10.4075 32.5497 9.82181 32.1883 9.46045Z" fill="#491E4B"/>
</svg>
